<?xml version="1.0" encoding="utf-8"?>
<!-- Generator: Adobe Illustrator 16.0.0, SVG Export Plug-In . SVG Version: 6.00 Build 0)  -->
<!DOCTYPE svg PUBLIC "-//W3C//DTD SVG 1.1//EN" "http://www.w3.org/Graphics/SVG/1.1/DTD/svg11.dtd">
<svg version="1.1" id="Layer_1" xmlns="http://www.w3.org/2000/svg" xmlns:xlink="http://www.w3.org/1999/xlink" x="0px" y="0px"
	 width="969px" height="231px" viewBox="0 0 969 231" enable-background="new 0 0 969 231" xml:space="preserve">
<g>
	<g>
		<path fill="#0086DF" d="M439.265,85.031v-3.231c0-2.38,0.461-4.076,1.385-5.074c0.923-0.999,2.078-1.499,3.46-1.499
			c1.46,0,2.653,0.5,3.576,1.499c0.922,0.999,1.386,2.694,1.386,5.074v21.919c-0.078,2.384-0.56,4.079-1.443,5.076
			c-0.883,1-2.058,1.5-3.519,1.5c-1.308,0-2.404-0.443-3.288-1.326c-0.884-0.884-1.403-2.367-1.558-4.441
			c-0.461-5.461-4.056-10.653-10.786-15.575c-6.731-4.92-15.787-7.384-27.167-7.384c-14.381,0-25.303,4.5-32.761,13.498
			c-7.46,8.999-11.19,19.305-11.19,30.916c0,12.537,4.112,22.882,12.343,31.033c8.228,8.151,18.879,12.227,31.956,12.227
			c7.535,0,15.208-1.385,23.014-4.152c7.803-2.77,14.861-7.228,21.167-13.381c1.614-1.538,3.037-2.308,4.268-2.308
			c1.309,0,2.405,0.443,3.289,1.327c0.883,0.885,1.326,1.979,1.326,3.289c0,3.306-3.884,7.499-11.652,12.574
			c-12.534,8.23-26.493,12.343-41.874,12.343c-15.614,0-28.438-4.978-38.473-14.938c-10.036-9.96-15.055-22.591-15.055-37.896
			c0-15.612,5.134-28.569,15.402-38.875c10.266-10.305,23.204-15.459,38.818-15.459C416.73,71.764,429.189,76.188,439.265,85.031z"
			/>
		<path fill="#0086DF" d="M594.769,125.407c0,14.766-5.288,27.38-15.86,37.837c-10.574,10.459-23.323,15.688-38.243,15.688
			c-15.073,0-27.879-5.248-38.414-15.746c-10.536-10.497-15.803-23.09-15.803-37.78c0-14.766,5.267-27.398,15.803-37.896
			c10.535-10.496,23.341-15.746,38.414-15.746c14.92,0,27.669,5.232,38.243,15.689C589.48,97.911,594.769,110.564,594.769,125.407z
			 M584.964,125.407c0-12.151-4.324-22.495-12.977-31.032c-8.651-8.537-19.134-12.806-31.436-12.806
			c-12.306,0-22.785,4.289-31.437,12.862c-8.652,8.578-12.977,18.903-12.977,30.976c0,11.997,4.324,22.305,12.977,30.915
			c8.651,8.615,19.131,12.921,31.437,12.921c12.302,0,22.784-4.285,31.436-12.862C580.64,147.805,584.964,137.482,584.964,125.407z"
			/>
		<path fill="#0086DF" d="M729.856,30.351v135.086h12.919c2.381,0,4.077,0.443,5.076,1.326c0.998,0.886,1.501,2.06,1.501,3.519
			c0,1.385-0.503,2.539-1.501,3.461c-0.999,0.923-2.695,1.384-5.076,1.384h-22.728v-19.265
			c-11.228,15.384-25.49,23.072-42.795,23.072c-8.769,0-17.173-2.325-25.208-6.978c-8.037-4.654-14.38-11.288-19.033-19.9
			c-4.654-8.612-6.978-17.495-6.978-26.648c0-9.23,2.323-18.129,6.978-26.706c4.653-8.575,10.996-15.209,19.033-19.899
			c8.035-4.69,16.479-7.038,25.321-7.038c16.918,0,31.146,7.69,42.682,23.072V40.155h-12.919c-2.384,0-4.076-0.461-5.076-1.383
			c-0.997-0.924-1.498-2.116-1.498-3.577c0-1.384,0.501-2.537,1.498-3.459c1-0.924,2.692-1.385,5.076-1.385H729.856z
			 M720.048,125.407c0-12.302-4.15-22.686-12.458-31.147c-8.305-8.459-18.188-12.69-29.646-12.69
			c-11.536,0-21.458,4.231-29.765,12.69c-8.305,8.462-12.459,18.845-12.459,31.147c0,12.228,4.154,22.593,12.459,31.088
			c8.307,8.5,18.229,12.747,29.765,12.747c11.458,0,21.341-4.247,29.646-12.747C715.897,148,720.048,137.634,720.048,125.407z"/>
		<path fill="#0086DF" d="M876.592,127.482h-98.747c1.689,12.536,6.938,22.632,15.747,30.284
			c8.804,7.652,19.708,11.477,32.702,11.477c7.229,0,14.807-1.191,22.729-3.575c7.917-2.382,14.38-5.537,19.379-9.459
			c1.462-1.155,2.729-1.731,3.807-1.731c1.23,0,2.309,0.481,3.231,1.442c0.922,0.963,1.383,2.095,1.383,3.404
			c0,1.308-0.616,2.578-1.845,3.806c-3.692,3.847-10.247,7.441-19.67,10.786c-9.421,3.347-19.091,5.018-29.014,5.018
			c-16.608,0-30.472-5.438-41.585-16.322c-11.113-10.883-16.669-24.054-16.669-39.511c0-14.074,5.208-26.146,15.629-36.224
			c10.422-10.074,23.321-15.111,38.706-15.111c15.842,0,28.878,5.175,39.105,15.516C871.707,97.624,876.747,111.026,876.592,127.482
			z M866.787,117.677c-1.922-10.688-6.979-19.379-15.169-26.071c-8.19-6.69-17.938-10.037-29.243-10.037
			c-11.306,0-21.036,3.308-29.188,9.922c-8.151,6.615-13.229,15.342-15.226,26.187H866.787z"/>
	</g>
	<g>
		<path d="M262.128,134.466l-75.673,92.131v-39.738l59.93-70.816l-59.93-70.154V6.149l75.673,91.021V134.466z"/>
		<path d="M279.663,134.466V97.17l75.673-91.021v39.739l-60.009,70.154l60.009,70.816v39.738L279.663,134.466z"/>
	</g>
	<g>
		<path d="M958.476,134.466l-75.673,92.131v-39.738l59.932-70.816l-59.932-70.154V6.149l75.673,91.021V134.466z"/>
	</g>
	<g>
		<path fill="#0086DF" d="M9,225.826V6.919h28.931l111.946,171.873V6.919h27.042v218.907h-28.931L36.042,53.807v172.02H9z"/>
	</g>
</g>
</svg>
