<svg xmlns="http://www.w3.org/2000/svg" id="svg-tw" viewBox="0 0 372.8 70.3" aria-labelledby="title" role="img">
    <title id="title">SVG Logo Treinaweb</title>
    <style type="text/css">
    <![CDATA[ 
	    #svg-tw {
	        margin: 0 auto;
	        width: 100%;
	        padding: 1rem;
	        -webkit-box-sizing: border-box;
	        -moz-box-sizing: border-box;
	        box-sizing: border-box;
	    }
	    .st0 {
	        fill-rule: evenodd;
	        clip-rule: evenodd;
	        fill: #34495E;
	    }
	    .st1 {
	        fill-rule: evenodd;
	        clip-rule: evenodd;
	        fill: #FDFEFE;
	    }
	    .st2 {
	        fill-rule: evenodd;
	        clip-rule: evenodd;
	        fill: #2980B9;
	    }
    ]]>
    </style>
    <g>
        <path class="st2 blue-end" d="M319,0.3c0.5-0.4,1-0.3,1.3-0.3c17,0,34.1,0,51.1,0c1,0,1.4,0.2,1.4,1.3c0,22.6,0,45.1,0,67.7
				c0,1-0.2,1.3-1.3,1.3c-21.7,0-43.4,0-65.1,0c-0.4,0-0.8,0.1-1.3-0.2c1.6-2.1,3.3-4.2,4.8-6.4c0.9-1.3,1.8-1.6,3.4-1.6
				c16.6,0.1,33.3,0,49.9,0.1c1.1,0,1.4-0.2,1.4-1.3c0-17,0-34.1,0-51.1c0-1.1-0.2-1.4-1.3-1.4c-11.5,0-23,0-34.4,0
				c-0.8,0-1.4-0.2-2-0.8c-2.2-2.2-4.5-4.3-6.8-6.4C319.7,0.8,319.3,0.6,319,0.3z" />
        <path class="st0" d="M316.7,2c2.9,2.7,5.6,5.3,8.4,7.8c0.3,0.3,0.3,0.7,0.3,1.1c0,3,0.1,5.9,0,8.9c0,1.2,0.4,1.4,1.5,1.4
					c5.3-0.1,10.6,0,15.8,0c2.3,0,4.6,0.1,6.9,0.6c4.4,0.9,7.2,3.4,7.9,7.9c0.7,4.8,0.8,9.6,0,14.3c-0.8,4.7-3.5,7.1-8.2,8
					c-1.7,0.3-3.4,0.5-5.1,0.5c-5.7-0.1-11.4,0.3-17.1-0.2c-1.2-0.1-2.4-0.4-3.5-0.7c-4-1.2-5.9-4.2-6.5-8.1c-0.2-1.3-0.3-2.6-0.3-3.9
					c0-12,0-24,0-36C316.7,3,316.7,2.6,316.7,2z M335.4,28.7C335.4,28.6,335.4,28.6,335.4,28.7c-3-0.1-6.1-0.1-9.1-0.1
					c-0.7,0-1,0.1-1,0.9c0.1,1.2,0.1,2.3,0,3.5c0,0.8,0.2,1,1,1c2.8,0,5.7,0,8.5,0c1.1,0,2.7-0.5,3.3,0.2c0.6,0.7,0.1,2.2,0.2,3.4
					c0.1,0.8-0.2,1.1-1,1.1c-3.7-0.1-7.4,0-11,0c-0.3,0-0.8-0.2-1,0.4c-0.7,2.8,1.1,5.8,4,6c5.3,0.4,10.5,0.4,15.8,0
					c2.3-0.2,3.5-1.3,3.8-3.6c0.4-3.2,0.4-6.4-0.1-9.5c-0.2-1.5-1.2-2.5-2.7-2.9c-0.7-0.2-1.5-0.3-2.3-0.3
					C341.1,28.7,338.2,28.7,335.4,28.7z" />
    </g>
    <path class="st2" d="M223.1,42.1c3-6.4,6-12.5,8.9-18.6c0.9-1.9,2.2-3.1,4.5-3.2c2.6-0.1,4.1,1.2,5.1,3.4c2.5,5.7,5.1,11.3,7.7,17
					c0.2,0.4,0.4,0.8,0.6,1.2c0.5-0.2,0.6-0.8,0.7-1.2c2.8-6.1,5.5-12.2,8.2-18.3c0.4-1,1-1.3,2-1.3c2,0.1,4.1,0.1,6.1,0
					c1,0,1,0.2,0.6,1c-3.9,8.6-7.8,17.3-11.7,26c-0.3,0.7-0.7,1.5-1,2.2c-0.9,2-2.5,3.1-4.7,3.1c-2.2,0-3.8-1.2-4.7-3.1
					c-2-4.3-4-8.7-6-13c-0.9-2-1.8-4-2.8-6.1c-1,2.1-2,4.1-2.9,6c-2.1,4.4-4.2,8.8-6.3,13.1c-1.2,2.4-3.1,3.4-5.5,3.1
					c-2-0.2-3.2-1.4-4-3.2c-3.1-7.2-6.2-14.4-9.3-21.6c-0.9-2.2-1.8-4.3-2.8-6.5c-0.4-0.9-0.2-1,0.7-1c2.3,0,4.6,0,6.8,0
					c0.7,0,1,0.2,1.3,0.9c2.7,6.3,5.4,12.6,8.1,18.9C222.7,41.3,222.9,41.6,223.1,42.1z" />
    <path class="st0" d="M76.4,40c-5,0-10,0-15,0c-0.8,0-1.1,0.2-1.1,1.1c0,3.9,0.9,4.9,4.9,4.9c8.7,0,17.4,0,26,0
						c1.1,0,1.3,0.3,1.3,1.3c-0.1,1.5,0,3,0,4.4c0,0.6-0.2,0.8-0.8,0.8c-9.6,0-19.1,0-28.7-0.1c-1.4,0-2.9-0.3-4.2-0.7
						c-4.2-1.2-6.6-4.1-7-8.5c-0.4-4.4-0.4-8.9,0-13.3c0.4-5,3.3-7.7,8.5-8.5c1.7-0.2,3.3-0.3,5-0.3c5.8,0,11.7,0,17.5,0.1
						c1.1,0,2.1,0.2,3.2,0.4c4.4,1.1,6.3,3.5,6.4,8c0,3.1,0,6.2,0,9.4c0,0.9-0.3,1-1.1,1C86.3,40,81.3,40,76.4,40z M69.6,27.9
						c-2,0-4.1,0-6.1,0.1c-2,0.1-3,1.1-3.2,3.1c-0.1,0.8,0,1.7-0.1,2.5c-0.1,0.8,0.2,0.9,1,0.9c3.6,0,7.2,0,10.8,0c3.6,0,7.2,0,10.8,0
						c0.7,0,1-0.2,0.9-0.9c-0.1-1.2,0-2.3,0-3.5c0-1.3-0.6-1.9-1.8-2.1c-0.5-0.1-1.1-0.1-1.7-0.1" />
    <path class="st2" d="M294.6,40c-5,0-10,0-15,0c-0.9,0-1.2,0.2-1.2,1.1c0,3.8,1,4.8,4.8,4.8c3.2,0,6.3,0,9.5,0c0.8,0,1.1,0.1,1.1,1
							c-0.1,1.6,0,3.1,0,4.7c0,0.6-0.1,0.9-0.8,0.9c-4.5-0.1-9.1,0.3-13.7-0.3c-6.2-0.7-9.4-4.1-9.6-10.4c-0.1-4-0.4-8.1,0.2-12.1
							c0.7-5.2,3.3-7.6,8.5-8.3c2.1-0.3,4.1-0.4,6.2-0.4c5.4,0,10.8-0.1,16.2,0.1c1.4,0.1,2.9,0.3,4.2,0.7c3.5,1.1,5.3,3.3,5.4,6.9
							c0.1,3.5,0,7,0.1,10.4c0,0.8-0.5,0.7-1,0.7C304.7,40,299.7,40,294.6,40z M290.2,34.5c3.6,0,7.3,0,10.9,0c0.7,0,1-0.2,1-0.9
							c-0.1-0.8,0-1.6,0-2.4c0-2.6-0.6-3.3-3.2-3.3c-3.5,0-7,0-10.5,0c-2.2,0-4.3,0-6.5,0.1c-2,0.1-2.9,1-3.2,2.9c-0.1,0.8,0,1.7-0.1,2.5
							c-0.1,0.8,0.2,1.1,1,1.1C283.1,34.4,286.6,34.5,290.2,34.5z" />
    <path class="st0" d="M180.6,52.5c-4.2-0.2-8.5,0.3-12.8-0.3c-0.8-0.1-1.7-0.3-2.4-0.6c-2.8-0.9-4.5-2.8-4.8-5.7
								c-0.2-2.2-0.3-4.5,0-6.7c0.5-3.6,2.7-5.5,6.7-6c1.7-0.2,3.3-0.3,5-0.3c7,0,14,0,21,0c1,0,1.3-0.3,1.2-1.3c-0.4-3.1-1.2-4.1-4.3-4.3
								c-2.9-0.2-5.8-0.1-8.6-0.1c-0.7,0-1-0.1-1-0.9c0.1-1.5,0-3,0-4.6c0-0.4,0-0.7,0.5-0.7c4.5,0.1,9-0.4,13.5,0.5c5.6,1.1,8.1,4,8.4,9.9
								c0.2,3.9,0.3,7.8-0.1,11.6c-0.5,5.8-3.3,8.5-9.1,9.1C189.5,52.7,185.1,52.4,180.6,52.5z M182.9,38.4c-2.4,0-4.7,0-7.1,0
								c-1.3,0-2.6,0-3.8,0c-2,0.1-2.8,0.9-2.9,2.9c0,0.8,0,1.5,0,2.3c0,2,0.8,2.9,2.8,3c2.8,0.1,5.5,0.1,8.3,0.1c3.4,0,6.7,0,10.1-0.1
								c2.6-0.1,3.9-1.3,4.1-3.9c0.1-1.1,0.1-2.2,0.2-3.2c0.1-0.9-0.2-1.1-1.1-1.1C189.9,38.4,186.4,38.4,182.9,38.4z" />
    <path class="st0" d="M114,41c0.1-3.1-0.3-6.8,0.3-10.5c0.9-5.6,3.7-8.2,9.3-8.9c1.9-0.3,3.9-0.4,5.9-0.3c5.1,0.1,10.2-0.3,15.3,0.3
									c5.3,0.6,8.3,3.1,9.3,7.9c0.3,1.3,0.4,2.6,0.4,3.9c0,6.1,0,12.2,0.1,18.2c0,0.8-0.2,1-1,1c-2.2-0.1-4.5-0.1-6.7,0
									c-0.9,0-1-0.3-1-1.1c0-5.3,0-10.6,0-16c0-0.3,0-0.6,0-1c-0.1-4.3-1.5-5.7-5.8-5.9c-4-0.1-7.9-0.1-11.9,0c-0.5,0-1,0-1.4,0.1
									c-2.7,0.4-3.9,1.7-4.1,4.5c-0.1,1.1-0.1,2.2-0.1,3.4c0,4.9,0,9.8,0,14.6c0,1.1-0.3,1.3-1.3,1.3c-2.1-0.1-4.2-0.1-6.4,0
									c-0.8,0-1-0.2-1-1C114,48.2,114,44.9,114,41z" />
    <path class="st0" d="M4.5,40.3c0-3.7,0-7.4,0-11.2c0-0.7-0.1-1-0.9-1C2.5,28.3,1,28.6,0.4,28c-0.7-0.7-0.2-2.2-0.2-3.3
										c0-0.9,0-1.8,0-2.8c0-0.6,0.1-0.9,0.8-0.8c0.8,0,1.7,0,2.5,0c0.8,0.1,1.1-0.2,1.1-1c-0.1-2.3,0-4.6,0-6.8c0-0.7,0.2-1,0.9-0.9
										c2.4,0,4.7,0,7.1,0c0.7,0,0.9,0.2,0.9,0.9c0,2.4,0,4.7,0,7.1c0,0.7,0.2,0.9,0.9,0.9c2.7,0,5.4,0,8,0c0.8,0,1,0.2,1,1
										c-0.1,1.7-0.1,3.4,0,5.2c0,0.9-0.3,1-1,1c-2.6,0-5.3,0-7.9,0c-0.8,0-1,0.2-1,1c0,7.4,0,14.7,0,22.1c0,1-0.2,1.3-1.2,1.3
										c-2.2-0.1-4.4-0.1-6.6,0c-0.8,0-1.1-0.2-1.1-1.1C4.5,47.8,4.5,44,4.5,40.3z" />
    <path class="st0" d="M27.3,41.7c0.1-2.9-0.2-6.5,0.2-10c0.6-6,3.8-9.3,9.7-10.1c3.2-0.4,6.5-0.3,9.7-0.4c0.5,0,0.8,0.1,0.8,0.7
											c0,1.9,0,3.8,0,5.6c0,0.7-0.3,0.8-0.9,0.7c-1.8,0-3.6,0-5.4,0c-3.7,0-5.1,1.3-5.4,4.9c-0.2,2.2-0.1,4.4-0.1,6.6c0,3.9,0,7.8,0,11.8
											c0,0.7-0.1,1.1-1,1c-2.3-0.1-4.6,0-6.8,0c-0.7,0-0.9-0.2-0.9-0.9C27.3,48.5,27.3,45.4,27.3,41.7z" />
    <path class="st0" d="M107.4,37.2c0,4.7,0,9.4,0,14.2c0,0.8-0.1,1.2-1.1,1.2c-2.3-0.1-4.6-0.1-6.8,0c-0.7,0-1-0.2-1-0.9
												c0-9.6,0-19.1,0-28.7c0-0.7,0.2-1,0.9-1c2.3,0.1,4.6,0.1,7,0c0.8,0,1,0.2,1,1C107.4,27.7,107.4,32.5,107.4,37.2z" />
    <path class="st0 e-end" d="M304.5,46c1.8,0,3.6,0,5.4,0c0.6,0,0.8,0.2,0.8,0.8c0,1.7,0,3.4,0,5c0,0.6-0.1,0.8-0.7,0.8c-3.7,0-7.3,0-11,0
													c-0.6,0-0.8-0.1-0.8-0.7c0-1.7,0.1-3.4,0-5c0-0.8,0.3-0.8,0.9-0.8C300.9,46,302.7,46,304.5,46z" />
    <path class="st2 dot" d="M103,19.4c-4.2,0-4.4-0.1-4.4-4.4c0-4,0.3-4.3,4.3-4.3c1,0,1.9-0.1,2.9,0.2c1,0.2,1.6,0.9,1.7,1.9
														c0.1,1.5,0.1,3,0,4.4c-0.1,1.2-0.8,2-2,2.1C104.6,19.4,103.8,19.4,103,19.4z" />
    <path class="st0" d="M235.9,70.2c-1.7,0.2-3.1,0.2-4.4-0.8c-0.4-0.3-0.8-0.5-1.2-0.7c-0.6-0.3-1.3-1.2-1.8-0.9
															c-0.5,0.2-0.2,1.2-0.2,1.9c0,0.7-0.4,0.7-0.8,0.7c-0.4,0-1,0.2-1-0.6c0-2.3,0-4.6,0-6.8c0-0.5,0.2-0.6,0.6-0.6c2.3,0,4.5,0,6.8,0.1
															c1.6,0.1,2.1,0.8,2.1,2.5c0,1.8-0.5,2.5-2,2.7c-0.7,0.1-1.4,0.1-2.5,0.1C233.1,68.5,234.4,69.3,235.9,70.2z M231,66.2
															c0.7,0,1.4,0,2.2,0c0.9,0,1.1-0.5,1.1-1.2c0-0.8-0.2-1.2-1.1-1.2c-1.4,0-2.9,0-4.3,0c-0.3,0-0.5,0-0.6,0.4c-0.4,1.5,0,2.1,1.6,2.1
															C230.2,66.2,230.6,66.2,231,66.2z" />
    <path class="st0" d="M270.2,70.2c-0.9,0-1.8,0.1-2.6,0c-1.1-0.1-1.8-0.7-1.9-1.8c-0.1-1.5-0.2-2.9,0-4.4c0.1-1,0.8-1.6,1.8-1.7
																c1.8-0.2,3.7-0.2,5.5,0c1,0.1,1.6,0.7,1.8,1.8c0.1,1.4,0.2,2.8,0,4.2c-0.1,1.3-0.7,1.8-2,1.9c-0.1,0-0.2,0-0.4,0
																C271.7,70.3,271,70.3,270.2,70.2C270.2,70.2,270.2,70.2,270.2,70.2z M270.2,68.8c0.3,0,0.6,0,0.8,0c2,0,2,0,2-2c0-3.3,0.3-3-3.1-3
																c-2.5,0-2.5,0-2.5,2.3C267.4,69,267.3,68.8,270.2,68.8z" />
    <path class="st0" d="M289.1,70.3c-1,0-1.9,0-2.9,0c-0.6,0-0.8-0.2-0.8-0.8c0-0.6,0.3-0.7,0.8-0.7c1.7,0,3.4,0,5.1,0
																	c0.6,0,1.1-0.1,1.1-0.9c0-0.8-0.5-1-1.2-1c-1.3,0-2.6,0-4,0c-1.4,0-1.9-0.6-1.9-2c-0.1-1.7,0.4-2.5,1.7-2.6c0.8-0.1,1.6,0,2.4-0.1
																	c0.6,0,0.7,0.3,0.7,0.8c0,0.6-0.2,0.8-0.8,0.7c-0.5,0-1,0-1.4,0c-0.6,0-1,0.2-1,0.9c0,0.7,0.3,0.9,1,0.9c1.2,0,2.5,0,3.7,0
																	c0.8,0,1.8,0.1,2.1,1c0.4,1,0.4,2-0.1,3c-0.3,0.6-0.9,0.7-1.5,0.8C291.1,70.3,290.1,70.3,289.1,70.3
																	C289.1,70.3,289.1,70.3,289.1,70.3z" />
    <path class="st0" d="M250.2,70.3c-1,0-2,0-3,0c-0.6,0-0.8-0.2-0.8-0.8c0-0.6,0.2-0.8,0.8-0.7c1.7,0,3.4,0,5.2,0c0.6,0,1.1,0,1.1-0.8
																		c0-0.8-0.4-1.1-1.1-1c-1.3,0-2.6,0-4,0c-1.4,0-1.9-0.6-2-2c-0.1-1.8,0.4-2.5,1.8-2.7c0.7-0.1,1.4,0,2.2-0.1c0.6,0,0.8,0.2,0.8,0.8
																		c0,0.6-0.3,0.8-0.8,0.7c-0.5,0-1,0-1.6,0c-0.6,0-0.8,0.3-0.8,0.9c0,0.6,0.3,0.9,0.9,0.9c1.2,0,2.5,0,3.7,0c1.9,0,2.4,0.6,2.4,2.5
																		c0,1.8-0.5,2.3-2.4,2.3C251.9,70.3,251,70.3,250.2,70.3z" />
    <path class="st0" d="M206.5,65.4c0-0.8,0-1.5,0-2.3c0-0.7,0-1,0.9-1c0.9,0,1,0.3,1,1.1c0,1.4,0,2.8,0,4.2c0,0.9,0.4,1.4,1.4,1.4
																			c0.9,0,1.8,0,2.8,0c1.1,0,1.5-0.4,1.5-1.5c0-1.4,0-2.9,0-4.3c0-0.6,0.2-0.9,0.8-0.8c0.6,0,1,0,1,0.8c-0.1,1.7,0,3.4,0,5
																			c0,1.5-0.7,2.1-2.1,2.2c-1.6,0.1-3.2,0.1-4.8,0c-1.5-0.1-2.1-0.8-2.2-2.3c0-0.1,0-0.2,0-0.2C206.5,67,206.5,66.2,206.5,65.4z" />
    <path class="st0" d="M192.4,70.2c-1,0-1.9,0-2.9,0c-1.5-0.1-2.1-0.8-2.2-2.2c-0.1-1.2-0.1-2.4,0-3.6c0.1-1.4,0.6-2.1,2-2.2
																				c2-0.1,4-0.1,6-0.1c0.7,0,0.6,0.5,0.6,0.9c0.1,0.5-0.1,0.7-0.7,0.7c-1.6,0-3.1,0-4.7,0c-1.1,0-1.6,0.4-1.6,1.5c0,4-0.3,3.5,3.4,3.5
																				c0.9,0,1.8,0,2.8,0c0.5,0,0.8,0.1,0.8,0.7c0,0.6-0.2,0.8-0.8,0.8C194.3,70.2,193.4,70.3,192.4,70.2
																				C192.4,70.3,192.4,70.3,192.4,70.2z" />
    <path class="st1" d="M270.2,68.8c-3,0-2.8,0.2-2.8-2.7c0-2.3,0-2.3,2.5-2.3c3.5,0,3.1-0.3,3.1,3c0,2,0,2-2,2
																					C270.8,68.8,270.5,68.8,270.2,68.8z" />
</svg>
