<?xml version="1.0" encoding="utf-8"?>
<!-- Generator: Adobe Illustrator 16.0.0, SVG Export Plug-In . SVG Version: 6.00 Build 0)  -->
<!DOCTYPE svg PUBLIC "-//W3C//DTD SVG 1.1//EN" "http://www.w3.org/Graphics/SVG/1.1/DTD/svg11.dtd">
<svg version="1.1" id="Layer_1" xmlns="http://www.w3.org/2000/svg" xmlns:xlink="http://www.w3.org/1999/xlink" x="0px" y="0px"
	 width="300px" height="300px" viewBox="246 156 300 300" enable-background="new 246 156 300 300" xml:space="preserve">
<rect x="246" y="156" fill="#5B3100" width="300" height="300"/>
<g>
	<path fill="#C99705" d="M435.606,302.665c2.466-9.439-3.94-11.537-10.177-7.994c-5.018,2.835-11.168,13.408-4.705,17.462
		C425.798,316.895,437.619,310.771,435.606,302.665z M423.077,332.287c-7.71,10.516-60.52,23.726-76.224,27.751
		c-14.74,3.771-24.576,8.617-16.016-16.3c4.705-13.719,11.509-26.475,17.574-39.288c0.964,3.317-4.903,32.995,37.786,14.372
		c9.751-4.224,35.291-22.762,40.734-30.416c3.826-3.713,13.379-11.197,16.327-15.59c4.876,6.633,0.538,24.35-2.835,32.938
		C436.229,316.355,429.767,324.832,423.077,332.287z"/>
	<path fill="#CA9804" d="M479.401,233.839c-1.843,5.868-25.767,42.378-29.396,44.788c-4.337-11.934,1.503-36.17,18.964-47.112
		c2.268-1.446,11.027-6.038,14.599-3.657C482.151,229.758,481.046,231.742,479.401,233.839z"/>
	<path fill="#A56E0B" d="M419.478,335.518c12.217-13.605,31.69-41.952,23.782-62.702l2.069-1.105
		c1.134,3.458,1.304,6.86,2.268,10.233c3.26,1.049,8.306,0.369,10.12,1.389c-4.366,18.907-10.857,28.375-23.585,40.904
		C430.985,327.326,422.879,333.789,419.478,335.518z"/>
	<path fill="#A56E0B" d="M366.214,240.019c4.082-5.414,5.329-22.28,19.814-35.348c0.227-0.227,1.53-1.332,1.559-1.389l0.482-1.105
		c0.057-0.199,0.085-0.312,0.028-0.425c4.847-4.082,8.277,7.228,8.476,9.808c-13.805,13.72-24.889,29.282-28.148,38.126
		L366.214,240.019z"/>
	<path fill="#A56E0B" d="M479.401,233.839c1.645-2.098,2.75-4.082,4.167-5.981c6.804,5.528-2.041,39.033-17.064,47.82
		c-2.637,1.559-10.233,4.536-14.712,3.458c4.705-2.495,14.4-12.246,18.198-17.093c6.491-8.249,10.205-17.745,10.999-28.857
		L479.401,233.839z"/>
	<path fill="#A56E0B" d="M348.412,304.451l1.786-3.402c1.162,5.386-2.211,18.624,12.501,19.673
		c20.863,1.445,44.504-17.093,64.233-32.315C412.759,308.362,344.756,350.712,348.412,304.451z"/>
	<path fill="#5B3100" d="M422.794,309.241c6.435,0.821,10.346-5.216,10.602-12.189c-3.062,2.268-1.333,3.118-4.904,7.88
		C427.046,306.832,424.636,308.73,422.794,309.241z M435.606,302.665c-3.487,7.682-7.342,10.375-14.882,9.468
		c-6.463-4.054-0.312-14.627,4.705-17.462C431.666,291.128,438.072,293.226,435.606,302.665z"/>
	<path fill="#CA9804" d="M366.214,240.019c1.077-9.638,0.737-15.675,6.69-24.775c4.252-6.491,10.374-12.217,15.193-13.493
		c0.057,0.113,0.028,0.227-0.028,0.425l-0.482,1.105c-0.028,0.057-1.332,1.162-1.559,1.389
		C371.543,217.739,369.729,237.354,366.214,240.019z"/>
	<path fill="#A56E0B" d="M420.299,311.99c7.54,0.908,12.614-2.749,15.534-10.289C437.846,311.452,425.6,316.895,420.299,311.99z"/>
	<path fill="#ECC963" d="M463.811,282.851c-13.89,37.219-26.617,43.909-49.975,61.172c-11.14,8.249,33.449,36.085,49.125,38.268
		c4.818,0.681,5.924-0.34,8.135-2.665c20.92-21.996,27.553-44.872,26.164-63.383c-0.028-0.51,0.028-1.049-0.142-1.502
		c-4.11-11.792-16.356-25.909-31.493-32.938C464.718,281.376,464.265,281.688,463.811,282.851z"/>
	<path fill="#ECC963" d="M502.05,372.879c-9.723,4.025-19.389,6.435-28.516,9.1c4.479-4.451,8.361-8.958,11.679-13.465
		c6.746-4.252,13.407-7.881,18.283-11.168L502.05,372.879z M462.337,384.274l-0.596,0.057l0.143-0.17L462.337,384.274z"/>
	<path fill="#ECC963" d="M498.025,344.107c2.211-2.211,5.188-5.103,6.633-5.981l4.252,10.856
		c0.396,0.992-13.55,10.148-20.268,14.542C492.895,356.977,495.984,350.457,498.025,344.107z"/>
	<path fill="#ECC963" d="M506.188,331.521c-1.672,2.211-4.109,4.648-6.633,7.002c1.475-6.463,1.843-12.672,1.219-18.454
		C502.872,324.123,505.196,329.311,506.188,331.521z"/>
	<path fill="#ECC963" d="M490.882,390.596l-17.745-5.159c11.565-2.75,12.218-2.693,23.896-6.633L490.882,390.596z"/>
	<path fill="#ECC963" d="M350.396,292.205c-8.73,13.663-7.908,14.116-16.639,32.4c-5.528,11.508-33.96,13.805-43.059,3.543
		c-2.807-3.146-4.195-10.262-2.552-12.785c17.717-26.957,38.013-49.237,73.871-52.44
		C358.022,270.463,352.154,282.992,350.396,292.205z"/>
	<path fill="#ECC963" d="M444.989,266.608c-24.208,25.115-61.087,48.416-73.021,50.202c-14.485,2.835-20.523-5.868-18.256-19.134
		c3.742-22.082,21.94-61.115,43.541-80.986c4.394-4.054,6.689-4.564,12.642-5.924c17.717-4.025,44.079,2.296,55.729,19.077
		C451.792,240.019,448.702,249.855,444.989,266.608z"/>
	<path fill="#CA9804" d="M284.378,325.427c-8.504,30.558,27.07,38.977,42.265,10.233
		C317.175,339.686,289.735,343.541,284.378,325.427z"/>
	<path fill="#A56E0B" d="M306.687,381.553c-0.596-0.51-0.368-0.057-0.964-1.219c-0.425-0.822-0.368-0.822-0.624-1.729
		c-2.068-7.483-2.409-14.853-3.061-22.28l-6.066-1.162c2.069,9.241,3.713,15.817,7.512,23.981c0.312,0.681,0.992,2.183,1.36,2.807
		l2.126,2.296L306.687,381.553z"/>
	<path fill="#C99705" d="M306.687,381.553c-1.758-8.9-1.275-17.717-1.134-25.568l-3.515,0.34c0.651,7.428,0.992,14.797,3.061,22.28
		c0.256,0.907,0.199,0.907,0.624,1.729C306.318,381.496,306.091,381.043,306.687,381.553z"/>
	<path fill="#A56E0B" d="M291.663,368.542c0.057-0.284,0.17-13.493,0.142-14.485l-4.139-1.645
		C288.205,357.827,288.941,363.809,291.663,368.542z"/>
	<path fill="#AD7808" d="M310.06,355.758c2.665,3.883,5.556,8.191,8.873,10.459l-3.289-12.557L310.06,355.758z"/>
	
		<ellipse transform="matrix(-0.4898 -0.8719 0.8719 -0.4898 329.4167 865.3858)" fill="#5B3100" cx="417.938" cy="336.299" rx="2.268" ry="4.291"/>
	<path fill="#CA9804" d="M412.702,358.933c3.827,11.253,19.021,23.471,33.619,26.136c2.551,0.481,5.018,0.736,7.597,0.85
		c1.673,0.085,1.984,0.028,3.628-0.057c2.92-0.113,2.354,0.17,2.75,0.709c-7.313,7.398-30.075,7.795-36.51,3.799
		c-7.512-4.621-13.805-21.969-12.473-33.023L412.702,358.933z"/>
	<path fill="#A56E0B" d="M460.296,386.57c-0.396-0.539,0.17-0.822-2.75-0.709c-1.644,0.085-1.955,0.142-3.628,0.057
		c-2.579-0.113-5.046-0.368-7.597-0.85c-14.599-2.665-29.792-14.883-33.619-26.136c3.26,2.239,5.981,5.782,9.354,8.476
		c10.318,8.221,25.966,16.64,39.175,17.546L460.296,386.57z"/>
	<path fill="#A56E0B" d="M434.869,421.352c0.681-0.539,0.425-0.085,1.077-1.247c0.482-0.822,0.396-0.794,0.681-1.701
		c2.268-7.483,2.664-14.258,3.373-21.685l6.689-0.228c-2.268,9.241-4.082,14.287-8.277,22.451c-0.368,0.68-1.077,2.183-1.502,2.777
		l-2.353,2.296L434.869,421.352z"/>
	<path fill="#C99705" d="M434.869,421.352c1.956-8.901,1.417-16.923,1.275-24.747l3.855,0.114
		c-0.709,7.427-1.105,14.201-3.373,21.685c-0.284,0.907-0.198,0.879-0.681,1.701C435.294,421.267,435.55,420.812,434.869,421.352z"
		/>
	<path fill="#A56E0B" d="M451.168,410.608c-0.057-0.284-0.17-14.089-0.142-15.081l4.564-1.049
		C454.995,399.894,454.173,405.874,451.168,410.608z"/>
	<path fill="#AD7808" d="M430.561,396.066c-2.92,3.884-5.527,7.682-9.185,9.921l3.629-11.48L430.561,396.066z"/>
</g>
</svg>
