<svg id="Layer_1" data-name="Layer 1" xmlns="http://www.w3.org/2000/svg" viewBox="0 0 351.93 39.28">
  <defs>
    <style>
      .cls-1, .cls-2 {
        fill: #ffcb05;
      }

      .cls-1 {
        fill-rule: evenodd;
      }
    </style>
  </defs>
  <title>fullname-logo</title>
  <g>
    <g id="Text-Front-in">
      <polygon id="Object-N-2" class="cls-1" points="176.49 36.77 174.69 5.56 184.8 4.88 190.63 18.36 191.76 4.13 201.19 5.27 197.15 36.77 189.96 36.77 184.57 29.36 185.02 37.22 176.49 36.77"/>
      <g id="Object-I">
        <polygon class="cls-1" points="159.2 37.22 158.07 17.01 170.2 16.78 168.18 36.99 159.2 37.22 159.2 37.22"/>
        <path class="cls-1" d="M157.18,4.66A7.06,7.06,0,0,1,160,1.26,7.6,7.6,0,0,1,164.19,0a7.91,7.91,0,0,1,1.4.11,6.19,6.19,0,0,1,1.46.51,7.06,7.06,0,0,1,3.4,2.78,7.6,7.6,0,0,1,1.26,4.24A7.9,7.9,0,0,1,171.6,9a6.19,6.19,0,0,1-.51,1.46,7,7,0,0,1-2.81,3.4,7.65,7.65,0,0,1-4.21,1.26,7.89,7.89,0,0,1-1.4-.11,6.18,6.18,0,0,1-1.46-.51,7,7,0,0,1-3.4-2.81,7.65,7.65,0,0,1-1.26-4.21,7.89,7.89,0,0,1,.11-1.4,6.19,6.19,0,0,1,.51-1.46h0Z"/>
      </g>
      <polygon id="Object-T" class="cls-1" points="116.09 37.67 114.52 15.21 108.45 14.99 108.45 4.42 135.17 5.56 134.05 17.46 126.19 17.23 123.94 37.44 116.09 37.67 116.09 37.67"/>
      <polygon id="Object-N" class="cls-1" points="80.61 36.77 78.81 5.56 88.92 4.88 94.75 18.36 95.88 4.13 105.31 5.27 101.27 36.77 94.08 36.77 88.69 29.36 89.14 37.22 80.61 36.77 80.61 36.77"/>
      <path id="Object-O" class="cls-2" d="M72.08,3.76H57L53.22,6.46,55,34.3l2.25,2.92,14.37-.45,2.47-3.14L75.45,6.9Zm-4.28,29-1.57.9H62.85L61.06,33l-1.11-9.43,2-1.35h5.37L68.46,24Z"/>
      <path id="Object-R" class="cls-2" d="M44.91,29.36l2.47-1.57L48.5,7.35,43.56,4.64,26.5,8.47l2.69,28.75h6.74L35.7,33l4.72-.22L44,37.9l6.06-3.14Zm-2.23-3.14-4.5,1.57-2.48-.9-1.12-7.63,0.9-2L42,16.56l1.12,1.8Z"/>
      <polygon id="Object-F" class="cls-1" points="2.25 37.44 0 7.13 23.13 6.68 20.88 26.89 8.76 27.56 8.76 29.81 11.9 29.58 12.13 33.18 8.98 33.18 8.76 37.22 2.25 37.44 2.25 37.44"/>
    </g>
    <g id="Text-Natal">
      <polygon id="Object-T-2" data-name="Object-T" class="cls-1" points="331.57 36.38 329.55 5.95 342.98 5.73 341.19 28.55 351.93 28.55 350.36 37.27 331.57 36.38"/>
      <path id="Object-A-2" class="cls-2" d="M322.62,31.68l2.91-25.51-4.47-4-15-.45-2.68,1.12L302,13.11l6.94,2,1.57-6.71h4.25L317,11.54l-1.12,8.73-11-1.57L302,21.39l1.34,14.32,1.57,2L317,37.94l1.34-1.57,3.8,2.9L326.65,35Zm-8,.13-5.09,0-0.77-1.5L308,25.91l1.57-1.2,6.14,1,0.3,5.25Z"/>
      <polygon id="Object-T-3" data-name="Object-T" class="cls-1" points="280.33 37.5 278.77 15.12 272.73 14.9 272.73 4.37 299.35 5.5 298.23 17.36 290.4 17.14 288.16 37.27 280.33 37.5 280.33 37.5"/>
      <path id="Object-A" class="cls-2" d="M266.24,31.68l2.91-25.51-4.47-4-15-.45L247,2.82l-1.34,10.29,6.94,2,1.57-6.71h4.25l2.24,3.13-1.12,8.73-11-1.57-2.91,2.68L247,35.71l1.57,2,12.08,0.22L262,36.38l3.8,2.9L270.27,35Zm-8.68.13-5.09,0-0.77-1.5L251,25.91l1.57-1.2,6.14,1,0.3,5.25Z"/>
      <polygon id="Object-N-2-2" data-name="Object-N" class="cls-1" points="218.36 36.6 216.57 5.5 226.64 4.83 232.46 18.26 233.57 4.09 242.97 5.21 238.94 36.6 231.78 36.6 226.41 29.22 226.86 37.05 218.36 36.6 218.36 36.6"/>
    </g>
  </g>
</svg>
