<?xml version="1.0" encoding="utf-8"?>
<!-- Generator: Adobe Illustrator 19.2.1, SVG Export Plug-In . SVG Version: 6.00 Build 0)  -->
<svg version="1.1" id="Layer_1" xmlns="http://www.w3.org/2000/svg" xmlns:xlink="http://www.w3.org/1999/xlink" x="0px" y="0px"
	 viewBox="0 0 151.4 78.8" style="enable-background:new 0 0 151.4 78.8;" xml:space="preserve">
<style type="text/css">
	.st0{fill:#46290F;}
	.st1{fill:#FFCB05;}
	.st2{enable-background:new    ;}
</style>
<title>join</title>
<a xlink:href="http://www.eventick.com.br/frontinnatal" target="_blank">
	<g>
		<polygon class="st0" points="19.6,49.9 134.3,37 128.4,78.8 29.1,78.8 	"/>
		<g>
			<path class="st1" d="M39.3,58c0.2-0.5,0.5-0.9,0.9-1.1c0.4-0.3,0.9-0.4,1.4-0.4c0.2,0,0.3,0,0.5,0c0.2,0,0.3,0.1,0.5,0.2
				c0.5,0.2,0.9,0.5,1.1,0.9c0.3,0.4,0.4,0.9,0.4,1.4c0,0.2,0,0.3,0,0.5c0,0.2-0.1,0.3-0.2,0.5c-0.2,0.5-0.5,0.9-0.9,1.1
				c-0.4,0.3-0.9,0.4-1.4,0.4c-0.2,0-0.3,0-0.5,0c-0.2,0-0.3-0.1-0.5-0.2c-0.5-0.2-0.9-0.5-1.1-0.9c-0.3-0.4-0.4-0.9-0.4-1.4
				c0-0.2,0-0.3,0-0.5C39.2,58.3,39.2,58.1,39.3,58z M40,68.8l-0.4-6.7l4-0.1l-0.7,6.7L40,68.8z"/>
			<path class="st1" d="M45.7,68.6l-0.6-10.4l3.4-0.2l1.9,4.5l0.4-4.7l3.1,0.4l-1.3,10.5h-2.4l-1.8-2.5l0.1,2.6L45.7,68.6z"/>
			<path class="st1" d="M55.8,68.8L55,64.2l2.8-0.6l0.4,2.7l1.3-0.7l-0.4-2.7l-3.7-0.4L55,57.8l1.5-1l5.3,0.1l0.5,3.2h-2.6L59,59
				l-1.3,0.2l0.5,1.8l4.5,0.4l-0.6,7.1L55.8,68.8z"/>
			<path class="st1" d="M64.1,68.8l-0.6-10.1l7.8-0.5L71,62.8L68,63l-0.2-1.5l-0.9,0.2l0.4,5.6H68l-0.1-1.4l3.4-0.1l-0.4,3.1
				L64.1,68.8z"/>
			<path class="st1" d="M73.1,68.7l-0.9-9.6l5.7-1.3l1.6,0.9l-0.4,6.8l-0.8,0.5l1.7,1.8l-2,1l-1.2-1.7l-1.6,0.1l0.1,1.5H73.1
				L73.1,68.7z M76.1,65.6l1.5-0.5l0.1-2.6l-0.4-0.6l-2.2,0.2l-0.3,0.7l0.4,2.5L76.1,65.6z"/>
			<path class="st1" d="M80.8,58c0.2-0.5,0.5-0.9,0.9-1.1c0.4-0.3,0.9-0.4,1.4-0.4c0.2,0,0.3,0,0.5,0c0.2,0,0.3,0.1,0.5,0.2
				c0.5,0.2,0.9,0.5,1.1,0.9c0.3,0.4,0.4,0.9,0.4,1.4c0,0.2,0,0.3,0,0.5c0,0.2-0.1,0.3-0.2,0.5c-0.2,0.5-0.5,0.9-0.9,1.1
				c-0.4,0.3-0.9,0.4-1.4,0.4c-0.2,0-0.3,0-0.5,0c-0.2,0-0.3-0.1-0.5-0.2c-0.5-0.2-0.9-0.5-1.1-0.9c-0.3-0.4-0.4-0.9-0.4-1.4
				c0-0.2,0-0.3,0-0.5C80.7,58.3,80.7,58.1,80.8,58z M81.5,68.8l-0.4-6.7l4-0.1l-0.7,6.7L81.5,68.8z"/>
			<path class="st1" d="M86.9,68.8l-0.6-10.1l7.8-0.5l-0.3,4.6l-3,0.2l-0.2-1.5l-0.9,0.2l0.4,5.6h0.8l-0.1-1.4l3.4-0.1l-0.4,3.1
				L86.9,68.8z"/>
			<path class="st1" d="M96.5,68.7l-0.8-1l-0.6-9.2l1.3-0.9h5l1.1,1l-0.4,8.9l-0.8,1L96.5,68.7z M98.3,67.5h1.1l0.5-0.3l0.2-2.9
				l-0.4-0.6H98l-0.7,0.4l0.4,3.1L98.3,67.5z"/>
			<path class="st1" d="M104.6,68.4l-0.9-10.1l6.8-0.2l-0.1,5.2l-3.3,0.1V64l1.1-0.2l0.1,1l-1,0.2v1.3l3.1,0.1L110,69L104.6,68.4z"/>
			<path class="st1" d="M112.6,68.8l-0.8-4.6l2.8-0.6l0.4,2.7l1.3-0.7l-0.4-2.7l-3.7-0.4l-0.4-4.7l1.5-1l5.3,0.1l0.5,3.2h-2.6
				l-0.7-1.2l-1.3,0.2L115,61l4.5,0.4l-0.6,7.1L112.6,68.8z"/>
			<polygon class="st1" points="88.4,69.9 89.6,70.2 90.7,68.4 88.6,67.9 		"/>
			<polygon class="st1" points="96.1,55.8 96.6,54.8 97.5,54.5 98.8,55.1 99.9,55.4 100.8,54.5 101.6,55.5 100.2,56.4 98.5,55.8
				97.1,55.4 96.5,56.4 		"/>
		</g>
	</g>
</a>

<g class="st2">
	<path class="st0" d="M3.1,22.7l-1.2-1.6L1,6.3l2-1.4h8l1.8,1.7l-0.7,14.2l-1.3,1.7L3.1,22.7z M6.1,20.8h1.8l0.8-0.5l0.4-4.7l-0.6-1
		H5.6l-1.1,0.7l0.6,5L6.1,20.8z"/>
	<path class="st0" d="M15.5,23.1l-0.8-1.2L14,16.7h4.3l0.2,3.9l1.4-0.4v-4.2l-4.5-1L14.6,14l-0.2-8.4l1.3-1.2l9.1,1L26,7.2l-2,14.7
		l-1.4,1.3L15.5,23.1z M19.9,14l0.6-5.3l-3-0.8l-0.8,0.8l0.1,3.8l0.8,1.2L19.9,14z"/>
	<path class="st0" d="M38.8,22.6l-1-15.9l10-1l2.5,2.2l-0.8,13.5L48,22.8L38.8,22.6z M44.2,20.8l2,0.1l1.2-0.6l0.3-4.1l-0.7-1.1
		h-3.1L44.2,20.8z"/>
	<path class="st0" d="M53.7,22.1L52.3,6l10.9-0.4L62.9,14l-5.3,0.1v1.1l1.8-0.2l0.1,1.6l-1.7,0.2v2l5.1,0.1l-0.7,4.2L53.7,22.1z"/>
	<path class="st0" d="M76.8,22.5l-1.1-8.7h6.2l0.5,6.6l1.6-0.2L83.4,6.3L89,7.4l-1.6,15.3L76.8,22.5z"/>
	<path class="st0" d="M90.9,5.1l5.7,0.1l0.7,13.9l0.7,1h0.8l1-1.3l1.4-13.4l5.4,0.1l-1.9,16.2l-1.7,1.2h-9.4l-1.6-2L90.9,5.1z"/>
	<path class="st0" d="M109.6,22.3l-1.1-16.2l7.2-0.1l-1,12.2h5.7l-0.8,4.7L109.6,22.3z"/>
	<path class="st0" d="M123.3,23.1l-1-17l6.8,0.2v5.9h1.3l0.2-5.1l6.3,0.2l-2.5,15.4l-4.7-0.4l0.4-4.9l-1.6-0.1v5.6L123.3,23.1z"/>
	<path class="st0" d="M141.1,22.7l-1.2-1.6l-1-14.8l2-1.4h8l1.8,1.7L150,20.8l-1.3,1.7L141.1,22.7z M144,20.8h1.8l0.8-0.5l0.4-4.7
		l-0.6-1h-2.9l-1.1,0.7l0.6,5L144,20.8z"/>
</g>
</svg>
