<svg id="Layer_1" data-name="Layer 1" xmlns="http://www.w3.org/2000/svg" viewBox="0 0 233.68 324.05">
  <defs>
    <style>
      .cls-1, .cls-3 {
        fill: #46290f;
      }

      .cls-1 {
        fill-rule: evenodd;
      }

      .cls-2 {
        fill: #ffcb05;
      }

      .cls-4 {
        fill: #c5962d;
      }

      .cls-5 {
        fill: #c7962c;
      }

      .cls-6 {
        fill: #9f6a28;
      }

      .cls-7 {
        fill: #ecc85c;
      }

      .cls-8 {
        fill: #aa762b;
      }
    </style>
  </defs>
  <title>peba</title>
  <g>
    <g>
      <polygon class="cls-1" points="6.12 103.08 4.49 45.17 40.9 10.42 137.54 0 185.03 17.37 220.94 62.55 233.68 107.81 194.17 130.17 113.99 120.94 60.61 127.41 51.23 159.45 40.9 122.77 6.12 103.08"/>
      <g>
        <path class="cls-2" d="M56,42.25L54.35,23.63l12.55-.41-0.28,9.65L60.56,33v1.24L62.62,34l0.14,1.8L60.83,36v2.35l5.93,0.14-0.83,4.83Z"/>
        <path class="cls-2" d="M68.42,22.94a4.34,4.34,0,0,1,1.71-2.09,4.67,4.67,0,0,1,2.6-.78,4.86,4.86,0,0,1,.86.07,3.82,3.82,0,0,1,.9.31,4.34,4.34,0,0,1,2.09,1.71,4.67,4.67,0,0,1,.78,2.6,4.84,4.84,0,0,1-.07.86,3.83,3.83,0,0,1-.31.9,4.31,4.31,0,0,1-1.72,2.09,4.7,4.7,0,0,1-2.59.78,4.86,4.86,0,0,1-.86-0.07A3.78,3.78,0,0,1,70.9,29a4.3,4.3,0,0,1-2.09-1.72A4.7,4.7,0,0,1,68,24.69a4.81,4.81,0,0,1,.07-0.86A3.78,3.78,0,0,1,68.42,22.94Zm1.24,20L69,30.52l7.45-.14L75.17,42.79Z"/>
        <path class="cls-2" d="M90.48,43.08L89.79,22.8l11.72-.55,2.62,1.93-1.38,10.2-1.1.55,2.21,0.69-0.69,6.76ZM97.93,33l-1.52-1-0.28-4,1.24-1.1h2.76L101,28.32l-0.41,3.59Zm2.76,4.55-1.93-1-1.52.28L96.54,38l0.55,3.17h3.45Z"/>
        <path class="cls-2" d="M105,22.94a4.34,4.34,0,0,1,1.71-2.09,4.67,4.67,0,0,1,2.6-.78,4.86,4.86,0,0,1,.86.07,3.82,3.82,0,0,1,.9.31,4.34,4.34,0,0,1,2.09,1.71,4.67,4.67,0,0,1,.78,2.6,4.84,4.84,0,0,1-.07.86,3.83,3.83,0,0,1-.31.9,4.31,4.31,0,0,1-1.72,2.09,4.7,4.7,0,0,1-2.59.78,4.86,4.86,0,0,1-.86-0.07,3.78,3.78,0,0,1-.9-0.31,4.3,4.3,0,0,1-2.09-1.72,4.7,4.7,0,0,1-.78-2.59,4.81,4.81,0,0,1,.07-0.86A3.78,3.78,0,0,1,105,22.94Zm1.24,20-0.69-12.41,7.45-.14-1.24,12.41Z"/>
        <path class="cls-2" d="M118.61,43.21v0.14l-3-3.86L121.78,32l-6.07-5.38,3.45-5.24,6.34,7.18L130.6,22l5.1,5.65-6.34,5.23,6.89,7.85-4.41,2.89-6.21-7Z"/>
        <path class="cls-2" d="M137.22,22.94a4.34,4.34,0,0,1,1.71-2.09,4.67,4.67,0,0,1,2.6-.78,4.86,4.86,0,0,1,.86.07,3.82,3.82,0,0,1,.9.31,4.34,4.34,0,0,1,2.09,1.71,4.67,4.67,0,0,1,.78,2.6,4.84,4.84,0,0,1-.07.86,3.83,3.83,0,0,1-.31.9A4.31,4.31,0,0,1,144,28.61a4.7,4.7,0,0,1-2.59.78,4.86,4.86,0,0,1-.86-0.07,3.78,3.78,0,0,1-.9-0.31,4.3,4.3,0,0,1-2.09-1.72,4.7,4.7,0,0,1-.78-2.59,4.81,4.81,0,0,1,.07-0.86A3.78,3.78,0,0,1,137.22,22.94Zm1.24,20-0.69-12.41,7.45-.14L144,42.79Z"/>
        <path class="cls-2" d="M148.67,42.66l-1.1-19.17,6.21-.41,3.58,8.27L158,22.62l5.79,0.69-2.48,19.35h-4.41l-3.31-4.55,0.28,4.83Z"/>
        <path class="cls-2" d="M45.25,71.51l-1-13.79-3.72-.14V51.09L57,51.79,56.28,59.1,51.46,59,50.08,71.37Z"/>
        <path class="cls-2" d="M60.56,70.55L58.9,51.93l12.55-.41-0.28,9.65-6.07.14v1.24l2.07-.28,0.14,1.8-1.93.28v2.35l5.93,0.14-0.83,4.83Z"/>
        <path class="cls-2" d="M74.34,71.51L73.52,52.62,80.27,53l3.45,6.34,2.76-6.21,5.93-.55-1.8,18.62-5.82-.42,0.71-7L84,66.41l-1.93-2.48L81,71.23Z"/>
        <path class="cls-2" d="M106.33,71.51l-0.83-18.89L112.26,53l3.45,6.34,2.76-6.21,5.93-.55-1.8,18.62-5.82-.42,0.71-7L116,66.41l-1.93-2.48L113,71.23Z"/>
        <path class="cls-2" d="M127.29,71.65l-1-1.24-0.83-8.83,1.79-1.65,6.76,1,0.69-5.38-1.38-1.93h-2.62l-1,4.14-4.27-1.24,0.83-6.34,1.65-.69,9.24,0.28L140,52.2l-1.79,15.72L140.67,70l-2.76,2.61-2.34-1.78-0.83,1Zm2.76-2.9L129.63,65l3.18,0.28-0.41,3.58Z"/>
        <path class="cls-2" d="M141.36,51.24a4.34,4.34,0,0,1,1.71-2.09,4.67,4.67,0,0,1,2.6-.78,4.86,4.86,0,0,1,.86.07,3.82,3.82,0,0,1,.9.31,4.34,4.34,0,0,1,2.09,1.71,4.67,4.67,0,0,1,.78,2.6,4.84,4.84,0,0,1-.07.86,3.83,3.83,0,0,1-.31.9,4.31,4.31,0,0,1-1.72,2.09,4.7,4.7,0,0,1-2.59.78,4.86,4.86,0,0,1-.86-0.07,3.78,3.78,0,0,1-.9-0.31,4.3,4.3,0,0,1-2.09-1.72A4.7,4.7,0,0,1,141,53a4.81,4.81,0,0,1,.07-0.86A3.78,3.78,0,0,1,141.36,51.24Zm1.24,20-0.69-12.41,7.45-.14L148.12,71.1Z"/>
        <path class="cls-2" d="M152.94,71.37l-1.38-8.55,5.24-1.1,0.83,5L160,65.44l-0.69-5-6.9-.69-0.83-8.68,2.76-1.79,9.79,0.14,1,5.93h-4.83l-1.38-2.21-2.34.41,1,3.31,8.27,0.83-1.1,13.1Z"/>
        <path class="cls-2" d="M17.53,99.95l-1-1.24-0.83-8.83,1.79-1.65,6.76,1L25,83.82,23.6,81.89H21L20,86l-4.27-1.24,0.83-6.34,1.65-.69L27.46,78l2.76,2.48L28.43,96.23l2.48,2.07-2.76,2.61-2.34-1.78-0.83,1Zm2.76-2.9-0.42-3.72L23,93.61l-0.41,3.58Z"/>
        <path class="cls-2" d="M34.36,99.4L33,97.88,31.74,80l1.79-.83h9.93l1.24,1.1L44.28,95.68l2.48,2.07-2.48,2.35-2.07-1.94L41.8,99ZM37,96.5l2.48-.14-0.69-1.52L40,93.33l1.52,0.55-0.41-4.69-0.83-1.38-4.55.55-1,1.52Z"/>
        <path class="cls-2" d="M48.28,79.23l6.62,0.14,0.83,16,0.83,1.11h1L58.63,95l1.65-15.44,6.21,0.14L64.28,98.43l-1.93,1.38H51.45l-1.79-2.35Z"/>
        <path class="cls-2" d="M67.59,79.54a4.34,4.34,0,0,1,1.71-2.09,4.67,4.67,0,0,1,2.6-.78,4.86,4.86,0,0,1,.86.07,3.82,3.82,0,0,1,.9.31,4.34,4.34,0,0,1,2.09,1.71,4.67,4.67,0,0,1,.78,2.6,4.84,4.84,0,0,1-.07.86,3.83,3.83,0,0,1-.31.9,4.31,4.31,0,0,1-1.72,2.09,4.7,4.7,0,0,1-2.59.78A4.86,4.86,0,0,1,71,85.92a3.78,3.78,0,0,1-.9-0.31A4.3,4.3,0,0,1,68,83.89a4.7,4.7,0,0,1-.78-2.59,4.81,4.81,0,0,1,.07-0.86A3.78,3.78,0,0,1,67.59,79.54Zm1.24,20L68.14,87.13,75.59,87,74.34,99.4Z"/>
        <path class="cls-2" d="M91.3,98.85L89.65,80.23l12.55-.41-0.28,9.65-6.07.14v1.24l2.07-.28,0.14,1.8-1.93.28V95l5.93,0.14L101.23,100Z"/>
        <path class="cls-2" d="M105.09,99.81l-0.83-18.89L111,81.33l3.45,6.34,2.76-6.21,5.93-.55-1.8,18.62-5.82-.42,0.71-7-1.51,2.62-1.93-2.48-1.1,7.31Z"/>
        <path class="cls-2" d="M124.95,99.68L124.26,79.4,136,78.85l2.62,1.93L137.22,91l-1.1.55,2.21,0.69L137.64,99Zm7.45-10.07-1.52-1-0.28-4,1.24-1.1h2.76l0.83,1.38L135,88.51Zm2.76,4.55-1.93-1-1.52.28L131,94.57l0.55,3.17H135Z"/>
        <path class="cls-2" d="M141.36,99.95l-1-1.24-0.83-8.83,1.79-1.65,6.76,1,0.69-5.38-1.38-1.93h-2.62l-1,4.14-4.27-1.24,0.83-6.34,1.65-.69L151.29,78,154,80.51l-1.79,15.72,2.48,2.07L152,100.91l-2.34-1.78-0.83,1Zm2.76-2.9-0.42-3.72,3.18,0.28-0.41,3.58Z"/>
        <path class="cls-2" d="M155.42,79.54a4.34,4.34,0,0,1,1.71-2.09,4.67,4.67,0,0,1,2.6-.78,4.86,4.86,0,0,1,.86.07,3.82,3.82,0,0,1,.9.31,4.34,4.34,0,0,1,2.09,1.71,4.67,4.67,0,0,1,.78,2.6,4.84,4.84,0,0,1-.07.86,3.83,3.83,0,0,1-.31.9,4.31,4.31,0,0,1-1.72,2.09,4.7,4.7,0,0,1-2.59.78,4.86,4.86,0,0,1-.86-0.07,3.78,3.78,0,0,1-.9-0.31,4.3,4.3,0,0,1-2.09-1.72A4.7,4.7,0,0,1,155,81.3a4.81,4.81,0,0,1,.07-0.86A3.78,3.78,0,0,1,155.42,79.54Zm1.24,20L156,87.13l7.45-.14L162.18,99.4Z"/>
        <path class="cls-2" d="M169.07,99.81v0.14l-3-3.86,6.21-7.45-6.07-5.38L169.63,78,176,85.19l5.1-6.62,5.1,5.65-6.34,5.23,6.89,7.85-4.41,2.89-6.21-7Z"/>
        <path class="cls-2" d="M190.72,99.54l-1.38-1.79-1.1-17.1L190.59,79h9.24l2.07,1.93-0.83,16.41-1.52,1.93Zm3.44-2.21h2.07l1-.55,0.41-5.38-0.69-1.1h-3.3l-1.24.83,0.68,5.79Z"/>
      </g>
    </g>
    <g>
      <path class="cls-3" d="M23.82,243.4a8.55,8.55,0,0,1-3.9-2.94c-2.43-3.23-1.25-3.82-3.34-5.37C16.75,239.86,19.42,244,23.82,243.4Z"/>
      <path class="cls-3" d="M47.45,170.25a0.22,0.22,0,0,1,0-.13A0.22,0.22,0,0,0,47.45,170.25Z"/>
      <path class="cls-3" d="M48.89,172.1c0.5,0.46,1,.92,1.43,1.39C49.86,173,49.39,172.56,48.89,172.1Z"/>
      <path class="cls-3" d="M1.44,301.53l3.13,0.72c0,0.31,0,2.48,0,4.76a37.09,37.09,0,0,1,3.8-1c-0.27-1-.54-2-0.81-3.15L12.08,303l2.64-.07c0,0.8,0,1.6-.06,2.41l2,0.27V306l2.14,0.47-1-.84h3.09c-0.78-1-1.53-2-2.32-3l3.79-1.06,1.3,4.1H25l0.14,0.56A12.21,12.21,0,0,0,29,303.58c5.3-5.12,47.15-8.8,64.66-14.92,1.7-.59,6-8,7.66-8.52,1.88-.6-3,16.22,2.44,16.32s6.19-20.7,9.94-1.3c9.26-13.41,14.29-29.53,4-51.31,0,0-24.21-30.91-51.83-33.14l-2.82-5.31c2.68-12.28,3.89-24.13-13.91-35.79-2.54-1.78-6.63-1.15-8.75,7.28A42.46,42.46,0,0,0,0,182.46v1.15c9.06-7.14,22.78-9.58,32.6-7.35,4.06,0.92,5.63,1.29,8.63,4,14.72,13.54,27.15,40.16,29.7,55.21,1.54,9.06-2.58,15-12.45,13.06-8.14-1.22-33.29-17.1-49.8-34.23C6.72,205.54,5,199.53,0,194.06v3.7c5.81,8.14,7.44,18.75,5.25,24.77C4.5,222,2.48,219.4,0,215.87v4a24.59,24.59,0,0,0,4,3,9.68,9.68,0,0,1-4-.14v3c1.23-.69,4.67-0.23,6.91-0.94,0.66-2.3.77-4.62,1.53-7l1.42,0.75c2,3,8.53,8.11,11.14,10.64,13.45,10.38,29.57,23,43.8,22,10-.7,7.72-9.73,8.52-13.4l1.22,2.31c4.13,8.75,8.77,17.44,12,26.78,5.84,17-.85,13.7-10.91,11.12-8.66-2.22-33.88-8.54-46-14.67-0.48.65-1.89,0.59-3.24-.17s-2.22-2-1.8-2.78h0a72.53,72.53,0,0,1-8.48-6.79C7.41,245.1,3,238.65,0,225.74v9.62c8,16.92,16.34,21.73,29.91,31.77C36.78,272.21,12.6,288.21,0,292.34v2.41c8.45-1.33,17.9-6.55,24.32-11.68,2.3-1.84,4.15-4.24,6.39-5.77l0.93-1.08c0.91,7.54-3.38,19.36-8.49,22.51-4,2.45-17,2.47-23.14-1.24v11c0.8-.24,1.62-0.51,2.46-0.78A45.81,45.81,0,0,1,1.44,301.53ZM60.87,202.8c-2.21-6-9.77-16.64-19.18-26,0.14-1.75,2.47-9.47,5.78-6.68,3.29,0.87,7.47,4.76,10.37,9.2,4.05,6.2,3.82,10.31,4.55,16.89Zm33.76,79.45,2.24-8.55,3.8,1.43C98.86,277.77,96.88,280.72,94.63,282.25Zm10.53,8.83c-0.22.46-.67,1.49-0.93,1.91l-1.45,1.56,0.19-1.82c1.22-6.07.88-12.1,0.78-17.44l2.39,0.23,4.14-.8C108.88,281,107.76,285.51,105.16,291.08Zm8.06-7.24c0-.19-0.11-9.2-0.1-9.87l2.84-1.14C115.58,276.54,115.08,280.61,113.22,283.84Zm5-29.4c5.8,20.84-18.47,26.57-28.82,7C95.83,264.17,114.54,266.8,118.2,254.45Zm-33.67-.56c-6-12.47-5.4-12.79-11.35-22.09-1.2-6.28-5.2-14.83-7.92-20,24.45,2.19,38.29,17.38,50.36,35.77,1.12,1.71.18,6.57-1.73,8.71C107.68,263.29,88.28,261.74,84.53,253.89Z"/>
      <path class="cls-4" d="M25,260.07a3.41,3.41,0,0,1,2.91.45c1.41,0.79,2.22,2,1.8,2.78a0.82,0.82,0,0,1-.07.08c12.1,6.13,37.32,12.46,46,14.67,10.06,2.58,16.75,5.88,10.91-11.12-3.21-9.34-7.84-18-12-26.78C77,271.68,30.66,242.81,21,229.2c-2.61-2.52-9.14-7.64-11.14-10.64C4.69,232.11,16.63,250.39,25,260.07Zm-3-26.6c3.38,1.92,7.54,9,3.3,11.84l0.2,0c-3.62,3.33-12-.37-10.59-7l0,0.07C13.69,232.41,17.9,231.13,22,233.47Z"/>
      <path class="cls-5" d="M5.25,222.53c2.19-6,.56-16.63-5.25-24.77v18.1C2.48,219.4,4.5,222,5.25,222.53Z"/>
      <path class="cls-6" d="M16.08,253.63a72.53,72.53,0,0,0,8.48,6.79,0.83,0.83,0,0,1,.14-0.16,7.52,7.52,0,0,1-1.09-1.14c-4.57-5.09-9-10.85-11.82-18.09-2.31-5.85-5.26-17.94-1.94-22.47l-1.42-.75c-0.76,2.36-.87,4.69-1.53,7-2.24.71-5.67,0.25-6.91,0.94C3,238.65,7.41,245.1,16.08,253.63Z"/>
      <path class="cls-6" d="M11.79,241c2.86,7.24,7.26,13,11.82,18.09a7.52,7.52,0,0,0,1.09,1.14,1,1,0,0,1,.26-0.19c-8.34-9.68-20.28-28-15.12-41.5C6.53,223.09,9.48,235.19,11.79,241Z"/>
      <path class="cls-6" d="M50.32,173.49c-0.46-.47-0.93-0.93-1.43-1.39l-1.08-.93-0.32-.77a0.82,0.82,0,0,1,0-.15,0.22,0.22,0,0,1,0-.13c-3.31-2.79-5.64,4.93-5.78,6.68,9.41,9.36,17,20,19.18,26l1.51-6.59C60.12,194.48,58.88,182.35,50.32,173.49Z"/>
      <path class="cls-6" d="M4,222.89a24.59,24.59,0,0,1-4-3v2.88A9.68,9.68,0,0,0,4,222.89Z"/>
      <path class="cls-6" d="M48.76,249.95c29.12,12.69,25.1-7.54,25.77-9.81l-1.22-2.31c-0.8,3.67,1.5,12.7-8.52,13.4-14.23,1-30.35-11.64-43.8-22C24.69,234.41,42.12,247.05,48.76,249.95Z"/>
      <path class="cls-6" d="M74.53,240.14c-0.67,2.27,3.34,22.5-25.77,9.81-6.64-2.9-24.07-15.54-27.77-20.75C30.66,242.81,77,271.68,74.53,240.14Z"/>
      <path class="cls-3" d="M25.31,245.31c4.24-2.8.08-9.91-3.3-11.84-4.12-2.34-8.33-1.05-7.07,4.87C16.92,243.36,20.3,245.83,25.31,245.31Zm-5.39-4.84a8.55,8.55,0,0,0,3.9,2.94c-4.4.56-7.07-3.54-7.23-8.3C18.67,236.64,17.49,237.23,19.92,240.46Z"/>
      <path class="cls-5" d="M47.47,170.12a0.22,0.22,0,0,0,0,.13,0.82,0.82,0,0,0,0,.15l0.32,0.77,1.08,0.93c0.5,0.45,1,.92,1.43,1.39,8.52,8.68,9.43,19.2,12.06,22.72-0.73-6.58-.49-10.69-4.55-16.89C54.94,174.88,50.76,171,47.47,170.12Z"/>
      <path class="cls-5" d="M50.32,173.49c8.56,8.85,9.8,21,12.06,22.72C59.75,192.7,58.83,182.18,50.32,173.49Z"/>
      <path class="cls-5" d="M48.89,172.1l-1.08-.93-0.32-.77,0.32,0.77Z"/>
      <path class="cls-5" d="M47.49,170.4a0.82,0.82,0,0,1,0-.15A0.82,0.82,0,0,0,47.49,170.4Z"/>
      <path class="cls-6" d="M25.22,245.38c-5.15.61-7.77-1.21-10.14-6.46C13.69,244.45,21.76,248.62,25.22,245.38Z"/>
      <path class="cls-6" d="M15.07,238.92c-0.05-.2-0.08-0.39-0.13-0.58l0-.07c-1.38,6.65,7,10.35,10.59,7l-0.2,0-0.1.07C21.76,248.62,13.69,244.45,15.07,238.92Z"/>
      <path class="cls-6" d="M14.95,238.34c0,0.19.07,0.38,0.13,0.58,2.37,5.25,5,7.07,10.14,6.46l0.1-.07C20.3,245.83,16.92,243.36,14.95,238.34Z"/>
      <path class="cls-7" d="M29.91,267.13C16.34,257.09,8,252.29,0,235.36v57C12.6,288.21,36.78,272.21,29.91,267.13Z"/>
      <path class="cls-7" d="M113.89,256.3c1.9-2.14,2.85-7,1.73-8.71C103.55,229.21,89.71,214,65.26,211.82,68,217,72,225.52,73.18,231.8c5.95,9.3,5.39,9.62,11.35,22.09C88.28,261.74,107.68,263.29,113.89,256.3Z"/>
      <path class="cls-7" d="M8.67,214.35c16.51,17.13,41.66,33,49.8,34.23,9.87,1.92,14-4,12.45-13.06-2.55-15.05-15-41.67-29.7-55.21-3-2.75-4.56-3.12-8.63-4-9.81-2.22-23.54.21-32.6,7.35v10.45C5,199.53,6.72,205.54,8.67,214.35Z"/>
      <path class="cls-5" d="M89.38,261.42c10.36,19.59,34.62,13.87,28.82-7C114.54,266.8,95.83,264.17,89.38,261.42Z"/>
      <path class="cls-6" d="M104.05,290.71a3.92,3.92,0,0,1-.41,1.17,1.38,1.38,0,0,1-.67.84l-0.19,1.82,1.45-1.56c0.26-.42.72-1.44,0.93-1.91,2.6-5.57,3.72-10,5.12-16.37l-4.14.8C105.71,280.58,105.47,285.61,104.05,290.71Z"/>
      <path class="cls-4" d="M103.64,291.89a3.92,3.92,0,0,0,.41-1.17c1.42-5.1,1.65-10.13,2.09-15.2l-2.39-.23c0.1,5.34.43,11.37-.78,17.44A1.38,1.38,0,0,0,103.64,291.89Z"/>
      <path class="cls-6" d="M113.22,283.84c1.86-3.23,2.35-7.3,2.74-11L113.12,274C113.11,274.64,113.19,283.65,113.22,283.84Z"/>
      <path class="cls-8" d="M94.63,282.25c2.25-1.54,4.23-4.48,6-7.13l-3.8-1.43Z"/>
      <path class="cls-3" d="M26.07,261.33a16,16,0,0,1-1.5-.9h0c-0.42.74,0.39,2,1.8,2.78s2.76,0.82,3.24.17a31,31,0,0,1-3.55-2.07Z"/>
      <path class="cls-3" d="M27.87,260.52a3.41,3.41,0,0,0-2.91-.45l1.09,1.24a31,31,0,0,0,3.55,2.07,0.82,0.82,0,0,0,.07-0.08C30.09,262.55,29.29,261.31,27.87,260.52Z"/>
      <path class="cls-3" d="M26.05,261.31a14.27,14.27,0,0,1-1.35-1,0.83,0.83,0,0,0-.14.16,16,16,0,0,0,1.5.9Z"/>
      <path class="cls-3" d="M25,260.07a1,1,0,0,0-.26.19,14.27,14.27,0,0,0,1.35,1Z"/>
      <path class="cls-3" d="M24.77,309.38a13.7,13.7,0,0,1-2.9-2.52,14.31,14.31,0,0,1-3.11-.37l8.06,6.68-1.69-7a8.83,8.83,0,0,1-1.23.4Z"/>
      <path class="cls-3" d="M23.59,305.66l0.3,1a8.83,8.83,0,0,0,1.23-.4L25,305.66h-1.4Z"/>
      <path class="cls-3" d="M20.83,305.66H17.74l1,0.84a14.31,14.31,0,0,0,3.11.37Q21.34,306.28,20.83,305.66Z"/>
      <path class="cls-3" d="M14.65,305.73a56.41,56.41,0,0,0,.93,14.12l0.21,1.82-1.6-1.56c-0.29-.42-0.79-1.44-1-1.91-1-2-1.87-3.78-2.58-5.48v7.34l6.77,4L16.5,313.24,16.61,306,16.35,306C15.77,305.86,15.21,305.79,14.65,305.73Z"/>
      <path class="cls-3" d="M14.66,305.39v0.34c0.56,0.06,1.13.13,1.7,0.25L16.61,306v-0.37Z"/>
      <path class="cls-5" d="M7.77,295.12a37.63,37.63,0,0,1-5.17.58,21.83,21.83,0,0,1-2.49,0H0v1.83c6.18,3.72,19.17,3.69,23.14,1.24,5.11-3.15,9.4-15,8.49-22.51l-0.93,1.08C28.08,285,17.72,293.29,7.77,295.12Z"/>
      <path class="cls-6" d="M0.1,295.66a21.83,21.83,0,0,0,2.49,0,37.63,37.63,0,0,0,5.17-.58c10-1.83,20.32-10.15,22.93-17.82-2.24,1.53-4.09,3.94-6.39,5.77C17.9,288.19,8.45,293.41,0,294.75v0.91H0.1Z"/>
      <path class="cls-6" d="M8.33,306a55,55,0,0,0,2.26,6.68v-7C9.82,305.79,9.06,305.9,8.33,306Z"/>
      <path class="cls-6" d="M10.59,304.83l1.68,0.23c-0.06-.66-0.12-1.33-0.19-2l-4.56-.15c0.28,1.13.54,2.17,0.81,3.15,0.73-.14,1.49-0.25,2.26-0.33v-0.89Z"/>
      <path class="cls-6" d="M14.19,320.11l1.6,1.56-0.21-1.82a1.42,1.42,0,0,1-.74-0.84,3.67,3.67,0,0,1-.46-1.17,58.19,58.19,0,0,1-2.07-12.22c-0.59,0-1.16,0-1.73.1v7c0.71,1.7,1.53,3.45,2.58,5.48C13.4,318.67,13.9,319.69,14.19,320.11Z"/>
      <path class="cls-6" d="M10.59,304.83v0.89c0.57-.05,1.14-0.09,1.73-0.1l-0.05-.56Z"/>
      <path class="cls-4" d="M14.66,305.39c0-.81,0-1.61.06-2.41l-2.64.07c0.06,0.68.13,1.35,0.19,2Z"/>
      <path class="cls-4" d="M12.32,305.62a58.19,58.19,0,0,0,2.07,12.22,3.67,3.67,0,0,0,.46,1.17,1.42,1.42,0,0,0,.74.84,56.41,56.41,0,0,1-.93-14.12A19.78,19.78,0,0,0,12.32,305.62Z"/>
      <path class="cls-4" d="M12.32,305.62a19.78,19.78,0,0,1,2.33.11v-0.34l-2.39-.33Z"/>
      <path class="cls-6" d="M4.46,312.54c0-.1.05-2.88,0.08-5.53l-2.08.66A16.82,16.82,0,0,0,4.46,312.54Z"/>
      <path class="cls-6" d="M4.57,302.25l-3.13-.72a45.81,45.81,0,0,0,1,6.13L4.53,307C4.56,304.73,4.57,302.55,4.57,302.25Z"/>
      <path class="cls-8" d="M22.3,301.56l-3.79,1.06c0.79,1,1.54,2.07,2.32,3h2.76Z"/>
      <path class="cls-8" d="M21.86,306.87a13.7,13.7,0,0,0,2.9,2.52l-0.87-2.76A8.84,8.84,0,0,1,21.86,306.87Z"/>
      <path class="cls-8" d="M23.89,306.62l-0.3-1H20.83q0.51,0.63,1,1.21A8.84,8.84,0,0,0,23.89,306.62Z"/>
    </g>
  </g>
</svg>
